<svg width="495" height="164" viewBox="0 0 495 164" fill="none" xmlns="http://www.w3.org/2000/svg">
<path d="M210.553 49.5483C224.774 49.5484 236.304 55.0674 240.966 63.0259L241.1 63.2534V50.8364H300.779V67.5835H280.315V105.077H261.564V67.5835H241.1V65.5044L240 65.981L226.997 71.6128C229.756 72.3848 232.21 73.3771 234.284 74.647C238.902 77.4747 241.609 81.6749 241.609 87.4731C241.609 94.4259 238.031 99.2925 232.512 102.301C227.122 105.24 219.871 106.436 212.127 106.436C197.459 106.436 185.779 100.503 180.434 91.5425L179.198 89.4692L181.433 88.5562L194.742 83.1177L195.872 82.6548C193.462 81.9182 191.388 81.0158 189.647 79.936C185.085 77.1062 182.86 73.0908 182.86 68.1538C182.86 62.5399 185.825 57.8059 190.753 54.5601C195.639 51.3423 202.475 49.5483 210.553 49.5483ZM332.195 49.6919C341.691 49.6919 349.866 52.1575 355.706 57.0239C361.593 61.9298 364.896 69.1043 364.896 78.0278C364.896 86.9515 361.593 94.1267 355.706 99.0327C349.866 103.899 341.691 106.365 332.195 106.365C322.665 106.365 314.472 103.9 308.623 99.0337C302.725 94.1275 299.421 86.9517 299.421 78.0278C299.421 69.1041 302.725 61.9291 308.623 57.0229C314.472 52.1568 322.665 49.6919 332.195 49.6919ZM399.801 50.8364C406.612 50.8365 412.702 51.6542 417.143 54.186C419.406 55.476 421.257 57.2197 422.527 59.5142C423.792 61.8002 424.416 64.5142 424.417 67.6528C424.417 71.7417 423.165 75.2802 420.81 78.0151C419.132 79.9645 416.954 81.4305 414.421 82.4116L430.378 101.675L432.57 104.32V50.8364H481.874V66.6538H451.249V68.2241H478.868V83.6108H451.249V89.2603H482.231V105.077H410.549L409.926 104.313L393.736 84.4702H388.64V105.077H369.961V50.8364H399.801ZM197.347 84.0396C198.225 85.6351 200.149 87.2609 203.028 88.4985C205.868 89.7193 209.45 90.476 213.343 90.4761C216.567 90.4761 219.073 90.1701 220.702 89.561C221.502 89.2618 221.955 88.9392 222.195 88.6694C222.396 88.4427 222.5 88.1992 222.5 87.8306C222.5 87.5288 222.431 87.4023 222.293 87.2632C222.08 87.0484 221.593 86.7263 220.54 86.396C218.41 85.7285 214.875 85.29 209.332 84.894V84.8931C204.444 84.5482 200.246 83.8939 196.723 82.9058L197.347 84.0396ZM332.195 66.3667C327.909 66.3667 324.493 67.465 322.189 69.3765C319.937 71.2444 318.53 74.0641 318.53 78.0278C318.53 81.952 319.935 84.7758 322.192 86.6558C324.499 88.5772 327.916 89.689 332.195 89.689C336.474 89.6889 339.89 88.5774 342.198 86.6558C344.455 84.7758 345.859 81.952 345.859 78.0278C345.859 74.0641 344.452 71.2444 342.201 69.3765C339.896 67.4648 336.481 66.3667 332.195 66.3667ZM388.64 69.2974H403.235C404.062 69.2974 404.654 69.0689 404.989 68.8071C405.273 68.5852 405.452 68.2899 405.452 67.7964C405.452 67.1409 405.239 66.8534 405.024 66.6812C404.744 66.4571 404.182 66.2241 403.235 66.2241H388.64V69.2974ZM210.553 65.5806C207.859 65.5806 205.491 65.9715 203.875 66.5757C203.063 66.879 202.554 67.1935 202.283 67.4429C202.6 67.6085 203.154 67.8231 204.077 68.0522C206.428 68.6359 210.298 69.1251 216.343 69.7368H216.342C219.039 70.0065 221.594 70.377 223.97 70.8765L223.909 70.7437C223.307 69.4433 221.897 68.143 219.542 67.1528C217.211 66.1731 214.132 65.5806 210.553 65.5806Z" stroke="white" stroke-width="4.15385"/>
<g opacity="0.56">
<path d="M85 130C112.614 130 135 107.614 135 80C135 52.386 112.614 30 85 30C57.386 30 35 52.386 35 80C35 107.614 57.386 130 85 130Z" fill="url(#paint0_linear_564_20)"/>
</g>
<path d="M85 136.5C116.149 136.5 141.4 111.338 141.4 80.3C141.4 49.261 116.149 24.0996 85 24.0996C53.851 24.0996 28.6001 49.261 28.6001 80.3C28.6001 111.338 53.851 136.5 85 136.5Z" fill="url(#paint1_linear_564_20)"/>
<path d="M139.3 80.3001C139.3 110.2 115 134.5 84.9 134.5C54.8 134.5 30.5 110.2 30.5 80.3001C30.5 50.4001 54.8 26.1001 84.9 26.1001C115 26.1001 139.3 50.4001 139.3 80.3001Z" fill="url(#paint2_linear_564_20)" stroke="#7047D6" stroke-width="4.0725"/>
<g filter="url(#filter0_d_564_20)">
<path d="M106.5 154.3C106.5 148.5 106.5 142.5 106.6 136.6C106.6 133.3 107 130 107.8 126.7C109 122 111.6 117.9 116.5 113.2C117.3 112.4 119 111.3 120.2 110.8L121.6 110.2L121.5 110.1C121.6 110.1 121.7 110.1 121.8 110L133.6 107.4L134.8 107.1C141.9 105.6 148.6 97.3 148.8 89.8L148.9 88.2H126C124.1 83.4 122.1 78.6 120.2 73.8H163.6V73.9C163.6 75.2 163.6 76.5 163.6 77.8C163.6 81.4 163.6 85 163.5 88.6C163.4 91.2 163.1 93.9 162.6 96.6C161.9 100.7 160.1 104.3 157.1 107.9C154 111.6 150.2 114.8 146 117.2C141.8 119.7 136.9 121.1 132 121.4C126.1 121.8 121.2 126.4 120.8 131.9C120.7 133.3 120.7 134.7 120.8 136.2C120.8 136.9 120.8 137.6 120.8 138.3V139.8H126.2C126.2 141.2 126.3 152.1 126.3 154.1L106.5 154.3ZM70.8 97.5L71.9 97C72.2 96.9 72.4 96.7 72.6 96.6C72.2 97.5 71.9 98.3 71.5 99.2C71.2 98.7 71 98.1 70.8 97.5ZM9.60001 88.3C9.60001 87.7 9.60001 87.2 9.60001 86.6C9.50001 82.7 9.40001 79 10 75.3C11.1 68.4 14.3 62.1 19.1 57C24 51.9 30.1 48.5 37 47.1C38.3 46.8 39.8 46.6 41.6 46.4C43.7 46.2 45.8 45.4 47.5 44.1C49.2 42.8 50.5 41.1 51.3 39.1C52.1 37.1 52.3 34.9 52 32.8C51.7 30.7 50.7 28.7 49.4 27C48 25.4 46.2 24.0996 44.2 23.3996C43 22.9996 41.7 22.7996 40.4 22.7996C39.6 22.7996 38.7 22.8996 37.9 23.0996C35.8 23.4996 33.9 24.5996 32.3 26C30.7 27.5 29.6 29.3 29 31.4C29 31.5 29 31.5 29 31.6L15.7 26.5C17.8 18.1996 27 10.2996 36.5 8.8996C37.8 8.6996 39.1 8.59961 40.4 8.59961C44.8 8.59961 49.1 9.69961 52.9 11.6996C57.9 14.3996 62 18.6996 64.4 23.7996C68.8 33.2 67.8 46.8 55.5 55.7L54.6 56.4L60.6 71.9C60.4 71.4 54.3 56.4 54.3 56.4L41.2 60.4L40.6 60.6C34.6 62.4 30.5 64.6 26.8 70.3L26.7 70.4L25 74H46.6C48.5 78.8 50.5 83.6 52.4 88.4H9.60001V88.3ZM100.9 63.2L101 63.3L100.6 64.1L100.9 63.2Z" fill="#7047D6"/>
<path d="M40.2 10C44.3 10 48.4 11 52 13C56.7 15.5 60.5 19.6 62.8 24.4C66.6 32.6 66.7 45.4 54.4 54.5L53.9 54.9L52.3 55.4L42.1 58.5L39 59.5C33.3 61.3 29.0002 63.8 25.3002 69.5L25.2002 69.7L25.1002 69.9L24.4002 71.3L22.4002 75.6H27.1002H44.8H45.4C46.9 79.4 48.5 83.2 50 87H11.0002C11.0002 86.9 11.0002 86.8 11.0002 86.8C10.9002 83 10.8002 79.3 11.4002 75.8C12.5002 69.2 15.5002 63.1 20.1002 58.3C24.7002 53.5 30.7 50.2 37.2 48.9C38.5 48.6 39.9 48.4 41.7 48.2C44.1 47.9 46.4 47 48.3 45.6C50.2 44.1 51.7 42.2 52.6 39.9C53.5 37.7 53.8 35.2 53.4 32.8C53 30.4 52 28.2 50.4 26.3C48.8 24.4 46.8 23.1 44.5 22.3C43.1 21.8 41.6 21.6 40.2 21.6C39.3 21.6 38.3 21.7 37.4 21.9C35 22.4 32.8 23.5 31.1 25.2C29.7002 26.5 28.6002 28.1 27.8002 29.9L17.2002 25.9C19.8002 18.6 28.0002 11.9 36.3 10.7C37.7 10.1 39 10 40.2 10ZM162 75.5C162 76.4 162 77.2 162 78.1C162 81.6 162 85.3 161.9 88.8C161.8 91.4 161.5 94 161 96.6C160.3 100.4 158.6 103.8 155.9 107.1C152.9 110.7 149.3 113.7 145.2 116.1C141.2 118.5 136.6 119.9 131.9 120.1C125.2 120.6 119.8 125.7 119.4 132C119.3 133.5 119.3 134.9 119.3 136.4C119.3 137.1 119.3 137.7 119.3 138.4V141.4H122.3H124.7C124.7 142.7 124.7 144.2 124.7 145.8C124.7 148.2 124.7 150.7 124.8 152.7H107.9C107.9 147.4 107.9 141.9 108 136.5C108 133.3 108.4 130.1 109.1 127C110.2 122.6 112.7 118.7 117.3 114.2C118 113.5 119.5 112.5 120.6 112L122.4 111.2L132.1 109.1L132.5 109L135 108.5C135.2 108.5 135.3 108.4 135.5 108.4H135.6C143 106.4 149.9 97.8 150.2 89.9L150.3 86.8H147.2H127.8H126.9C125.4 83 123.8 79.2 122.3 75.4H162M40.2 7C38.8 7 37.5 7.1 36.1 7.3C25.7002 8.9 15.5002 17.8 13.8002 27.4L29.9002 33.5C30.1 32.8 30.2 32.3 30.4 31.7C30.9 29.9 31.9 28.3 33.3 27C34.7 25.7 36.4 24.8 38.2 24.4C38.9 24.2 39.6 24.2 40.4 24.2C41.5 24.2 42.7 24.4 43.8 24.8C45.6 25.4 47.2 26.5 48.4 27.9C49.6 29.3 50.4 31.1 50.7 32.9C51 34.8 50.8 36.7 50.1 38.4C49.4 40.1 48.2 41.7 46.7 42.8C45.2 43.9 43.4 44.6 41.6 44.8C40 45 38.4 45.2 36.9 45.5C29.8002 47 23.2002 50.6 18.2002 55.8C13.2002 61.1 9.80023 67.7 8.70023 74.9C8.00023 79.6 8.30023 84.4 8.30023 89.2C8.30023 89.3 8.30023 89.3 8.30023 89.6H51.8C56 99.8 60.1 110 64.2 120H79L91.4 89.7H110.5L119.4 109.4C118.1 110 116.3 111.2 115.3 112.1C111.2 116.1 107.7 120.6 106.2 126.3C105.4 129.6 105 133.1 105 136.5C104.9 142.4 104.9 148.4 104.9 154.3C104.9 154.7 104.9 155.1 105 155.6H127.8C127.8 153.3 127.7 139.9 127.7 138.3H122.3C122.3 136.1 122.2 134.1 122.3 132C122.6 127.2 126.9 123.2 132.1 122.9C137.3 122.6 142.3 121.1 146.7 118.5C151 115.9 154.9 112.7 158.2 108.8C161.1 105.3 163.2 101.4 164 96.9C164.5 94.2 164.8 91.5 164.9 88.7C165.1 83.7 165 78.8 165 73.8C165 73.3 164.9 72.8 164.8 72.3H120.9C120.6 71.7 120.4 71.3 120.2 70.8C116.5 61.7 112.7 52.6 109 43.4C108.3 41.8 108.4 41.8 106.6 41.8H95.2C95 41.8 94.8 41.8 94.7 41.8C93.3 41.8 93.4 41.9 92.7 43.5C85.9 60.3 79.1 77.1 72.2 93.9C72 94.4 72 95.1 71.2 95.4L56.1 56.6C69.4 46.8 69.9 32.4 65.5 22.8C62.9 17.3 58.7 12.9 53.4 10C49.3 8.1 44.8 7 40.2 7ZM71.7 102.7C75.7 93.1 79.5 83.5 83.4 73.9C87.3 64.3 91.2 54.6 95.2 44.9H106.7C115 65.5 123.2 85.7 131.5 106.3L121.2 108.5H121.1C121 108.5 120.9 108.4 120.8 108.1C118.1 101.6 115.5 95 112.8 88.5C112.2 86.9 112.2 86.8 111.1 86.8C110.9 86.8 110.6 86.8 110.3 86.8C104.8 86.8 99.3 86.8 93.7 86.8H91.4C93 82.8 94.5 79.1 96.1 75.2H107.4L101 59.5H100.6L77.2 117.2H65.6C58 98.5 50.5 79.8 42.9 61.2L53.1 58.1C59.1 72.8 65.1 87.7 71.2 102.6L71.7 102.7ZM27.2002 72.4L27.9002 71C31.3 65.7 35.1 63.7 40.8 61.9C42.1 65.2 43.5 69 44.9 72.3C38.2 72.4 33.9 72.4 27.2002 72.4ZM98.4 72.4C99.2 70.4 100 68.6 100.7 66.8L100.9 66.4L101.1 66.9C101.8 68.7 102.6 70.5 103.4 72.5H98.4V72.4ZM147.2 89.9C146.9 97 140.4 104.5 134.3 105.8C132.2 100.6 130 95.4 127.8 89.9H147.2Z" fill="#433179"/>
</g>
<g filter="url(#filter1_d_564_20)">
<path d="M96.0999 75.4H107.4L101 59.7H100.6L77.1999 117.4H65.5999C58.0999 98.8 50.4999 80.1 42.8999 61.4L53.0999 58.3C59.0999 73 65.0999 87.9 71.1999 102.8H71.5999C75.4999 93.2 79.3999 83.6 83.2999 74C87.1999 64.4 91.0999 54.7 95.0999 45H106.6C114.9 65.6 123.3 86.2 131.6 106.7L121.2 109.2C121.1 109 120.9 108.6 120.8 108.2C118.1 101.7 115.5 95.1 112.8 88.6C112 86.7 112.2 86.9 110.3 86.9C104.8 86.9 99.2999 86.9 93.6999 86.9H91.3999C92.9999 82.9 94.5999 79.2 96.0999 75.4Z" fill="white"/>
</g>
<defs>
<filter id="filter0_d_564_20" x="4.23633" y="5" width="164.789" height="156.6" filterUnits="userSpaceOnUse" color-interpolation-filters="sRGB">
<feFlood flood-opacity="0" result="BackgroundImageFix"/>
<feColorMatrix in="SourceAlpha" type="matrix" values="0 0 0 0 0 0 0 0 0 0 0 0 0 0 0 0 0 0 127 0" result="hardAlpha"/>
<feOffset dy="2"/>
<feGaussianBlur stdDeviation="2"/>
<feComposite in2="hardAlpha" operator="out"/>
<feColorMatrix type="matrix" values="0 0 0 0 0 0 0 0 0 0 0 0 0 0 0 0 0 0 0.53 0"/>
<feBlend mode="normal" in2="BackgroundImageFix" result="effect1_dropShadow_564_20"/>
<feBlend mode="normal" in="SourceGraphic" in2="effect1_dropShadow_564_20" result="shape"/>
</filter>
<filter id="filter1_d_564_20" x="34.8999" y="42" width="104.7" height="88.3999" filterUnits="userSpaceOnUse" color-interpolation-filters="sRGB">
<feFlood flood-opacity="0" result="BackgroundImageFix"/>
<feColorMatrix in="SourceAlpha" type="matrix" values="0 0 0 0 0 0 0 0 0 0 0 0 0 0 0 0 0 0 127 0" result="hardAlpha"/>
<feOffset dy="5"/>
<feGaussianBlur stdDeviation="4"/>
<feComposite in2="hardAlpha" operator="out"/>
<feColorMatrix type="matrix" values="0 0 0 0 0 0 0 0 0 0 0 0 0 0 0 0 0 0 0.28 0"/>
<feBlend mode="normal" in2="BackgroundImageFix" result="effect1_dropShadow_564_20"/>
<feBlend mode="normal" in="SourceGraphic" in2="effect1_dropShadow_564_20" result="shape"/>
</filter>
<linearGradient id="paint0_linear_564_20" x1="85" y1="30" x2="85" y2="130" gradientUnits="userSpaceOnUse">
<stop stop-color="white"/>
<stop offset="1" stop-color="#E8E8E8"/>
</linearGradient>
<linearGradient id="paint1_linear_564_20" x1="84.973" y1="24.0914" x2="84.973" y2="136.494" gradientUnits="userSpaceOnUse">
<stop stop-color="white"/>
<stop offset="1" stop-color="#E8E8E8"/>
</linearGradient>
<linearGradient id="paint2_linear_564_20" x1="85.782" y1="55.0731" x2="83.282" y2="133.073" gradientUnits="userSpaceOnUse">
<stop stop-color="white"/>
<stop offset="1" stop-color="#DDDDDD"/>
</linearGradient>
</defs>
</svg>
